<svg xmlns="http://www.w3.org/2000/svg" enable-background="new 0 0 32 32" viewBox="0 0 32 32" id="CarAlternator">
  <path fill="none" stroke="#000000" stroke-linecap="round" stroke-linejoin="round" stroke-miterlimit="10" stroke-width="2" d="M20 24H5c-1.105 0-2-.895-2-2V10c0-1.105.895-2 2-2h15c1.105 0 2 .895 2 2v12C22 23.105 21.105 24 20 24zM30 22c-1.333-1.143-2.667-1.143-4 0V10c1.333 1.143 2.667 1.143 4 0V22z" class="colorStroke000000 svgStroke"></path>
  <line x1="22" x2="26" y1="16" y2="16" fill="none" stroke="#000000" stroke-linecap="round" stroke-linejoin="round" stroke-miterlimit="10" stroke-width="2" class="colorStroke000000 svgStroke"></line>
  <line x1="17" x2="18" y1="12" y2="12" fill="none" stroke="#000000" stroke-linecap="round" stroke-linejoin="round" stroke-miterlimit="10" stroke-width="2" class="colorStroke000000 svgStroke"></line>
  <line x1="17" x2="18" y1="16" y2="16" fill="none" stroke="#000000" stroke-linecap="round" stroke-linejoin="round" stroke-miterlimit="10" stroke-width="2" class="colorStroke000000 svgStroke"></line>
  <line x1="17" x2="18" y1="20" y2="20" fill="none" stroke="#000000" stroke-linecap="round" stroke-linejoin="round" stroke-miterlimit="10" stroke-width="2" class="colorStroke000000 svgStroke"></line>
  <line x1="8" x2="8" y1="8" y2="24" fill="none" stroke="#000000" stroke-linecap="round" stroke-linejoin="round" stroke-miterlimit="10" stroke-width="2" class="colorStroke000000 svgStroke"></line>
  <path fill="none" stroke="#000000" stroke-linecap="round" stroke-linejoin="round" stroke-miterlimit="10" stroke-width="2" d="M15 8h-5V5.5C10 4.119 11.119 3 12.5 3h0C13.881 3 15 4.119 15 5.5V8zM15 24h-5v2.5c0 1.381 1.119 2.5 2.5 2.5h0c1.381 0 2.5-1.119 2.5-2.5V24z" class="colorStroke000000 svgStroke"></path>
</svg>
